<svg xmlns="http://www.w3.org/2000/svg" width="653" height="653" viewBox="-30 -30 653 653">
  <defs>
    <filter id="neon" x="-40%" y="-40%" width="180%" height="180%">
      <feGaussianBlur in="SourceGraphic" stdDeviation="4" result="blur1"/>
      <feGaussianBlur in="SourceGraphic" stdDeviation="10" result="blur2"/>
      <feMerge>
        <feMergeNode in="blur2"/>
        <feMergeNode in="blur1"/>
        <feMergeNode in="SourceGraphic"/>
      </feMerge>
    </filter>
  </defs>
  <g fill="none" stroke="#FFF3A6" stroke-width="12" stroke-linecap="round" stroke-linejoin="round" filter="url(#neon)">
    <path d="M 284 0 L 267 5 L 261 9 L 252 19 L 247 30 L 245 41 L 245 80 L 242 90 L 234 101 L 221 109 L 211 112 L 201 112 L 191 109 L 182 103 L 160 81 L 150 73 L 140 68 L 130 66 L 115 68 L 104 73 L 80 95 L 73 105 L 67 119 L 67 137 L 74 152 L 105 184 L 110 193 L 112 199 L 112 213 L 109 222 L 105 229 L 96 238 L 88 242 L 76 245 L 33 246 L 26 248 L 13 256 L 6 265 L 1 278 L 0 319 L 4 333 L 10 342 L 17 348 L 25 352 L 37 355 L 82 357 L 97 364 L 103 370 L 108 378 L 112 391 L 110 407 L 104 418 L 72 451 L 67 462 L 65 473 L 66 483 L 70 493 L 92 518 L 107 530 L 115 534 L 133 535 L 145 531 L 154 525 L 187 494 L 201 489 L 217 491 L 230 498 L 237 505 L 241 512 L 244 523 L 243 554 L 247 568 L 256 587 L 263 594 L 278 601 L 315 602 L 336 595 L 342 591 L 349 583 L 355 566 L 356 520 L 363 505 L 371 497 L 379 492 L 361 477 L 355 470 L 344 464 L 335 463 L 314 467 L 281 467 L 255 462 L 235 455 L 215 445 L 195 431 L 175 412 L 161 394 L 145 364 L 136 334 L 133 306 L 134 284 L 140 254 L 148 232 L 158 213 L 177 188 L 203 165 L 225 152 L 251 142 L 278 136 L 317 135 L 339 138 L 359 144 L 387 158 L 411 176 L 425 190 L 443 214 L 453 233 L 459 248 L 465 274 L 466 305 L 463 325 L 465 344 L 468 352 L 474 361 L 492 377 L 503 366 L 517 359 L 526 357 L 566 357 L 578 353 L 589 345 L 595 337 L 599 328 L 601 317 L 601 286 L 596 268 L 584 254 L 572 248 L 562 246 L 521 246 L 514 244 L 503 238 L 495 229 L 489 216 L 490 197 L 501 179 L 525 155 L 532 143 L 535 132 L 535 123 L 532 112 L 524 99 L 505 80 L 488 70 L 477 67 L 468 67 L 457 70 L 447 76 L 418 105 L 412 109 L 401 113 L 390 113 L 383 111 L 369 103 L 362 95 L 359 89 L 356 78 L 356 37 L 352 23 L 346 14 L 337 6 L 324 1 Z"/>
    <path d="M 272 182 L 271 183 L 321 233 L 329 244 L 333 252 L 337 266 L 337 282 L 333 296 L 324 311 L 311 324 L 301 331 L 285 337 L 266 338 L 251 334 L 234 324 L 183 272 L 178 275 L 176 289 L 176 315 L 178 328 L 186 353 L 197 372 L 204 381 L 229 404 L 243 413 L 264 422 L 283 426 L 298 427 L 328 423 L 346 417 L 354 417 L 359 419 L 479 537 L 490 543 L 497 545 L 512 544 L 526 537 L 537 526 L 544 512 L 545 499 L 540 484 L 536 478 L 419 362 L 416 357 L 416 346 L 421 333 L 424 318 L 425 290 L 422 271 L 413 246 L 398 223 L 376 202 L 361 192 L 341 183 L 320 178 L 291 178 Z"/>
    <path d="M 500 481 L 509 482 L 517 486 L 524 498 L 524 508 L 520 516 L 515 521 L 505 525 L 496 524 L 490 521 L 483 514 L 480 506 L 481 496 L 483 492 L 491 484 Z"/>
  </g>
</svg>
